<?xml version="1.0" encoding="utf-8"?>
<!-- Generator: Adobe Illustrator 23.0.1, SVG Export Plug-In . SVG Version: 6.00 Build 0)  -->
<svg version="1.1" id="Layer_1" xmlns="http://www.w3.org/2000/svg" xmlns:xlink="http://www.w3.org/1999/xlink" x="0px" y="0px"
	 viewBox="0 0 24.02 24.03" style="enable-background:new 0 0 24.02 24.03;" xml:space="preserve">
<style type="text/css">
	.st0{fill:none;stroke:#000000;stroke-linejoin:round;}
</style>
<circle class="st0" cx="12.14" cy="11.87" r="11.22"/>
<path class="st0" d="M20.78,19.02c-1.18-2.98-3.86-5.21-7.1-5.78c1.83-0.64,3.15-2.38,3.15-4.43c0-2.59-2.1-4.69-4.69-4.69
	c-2.59,0-4.69,2.1-4.69,4.69c0,2.03,1.29,3.75,3.1,4.41c-3.25,0.53-5.94,2.72-7.16,5.68"/>
<circle class="st0" cx="175.4" cy="16.03" r="27.5"/>
<g>
	<path class="st0" d="M176.21,8.09c0,0-6.08,2-3.4,4.04c2.53,1.93,7.26,0.56,5.81-0.75c0,0-1.26-0.97-3.19-0.66"/>
	<path class="st0" d="M191.03,38.75c-2.06-5.19-6.6-9.11-12.16-10.32c3.45-1.21,6.08-4.18,6.81-7.83c0.2,0.07,0.41,0.11,0.64,0.11
		c1.14,0,2.06-0.92,2.06-2.06s-0.92-2.06-2.06-2.06c-0.21,0-0.41,0.04-0.6,0.1c-0.88-4.91-5.16-8.65-10.33-8.65
		c-5.14,0-9.42,3.7-10.32,8.59c-0.12-0.02-0.24-0.04-0.37-0.04c-1.14,0-2.06,0.92-2.06,2.06s0.92,2.06,2.06,2.06
		c0.14,0,0.28-0.01,0.41-0.04c0.74,3.58,3.31,6.5,6.69,7.72c-5.56,1.15-10.13,5.01-12.25,10.14"/>
</g>
</svg>
