<svg width="71" height="71" viewBox="0 0 71 71" fill="none" xmlns="http://www.w3.org/2000/svg" class="h-full w-auto !fill-current [&amp;_*]:!fill-current">
<path fill-rule="evenodd" clip-rule="evenodd" d="M28.3562 5.24378C38.4883 2.73168 49.5897 5.40178 57.4345 13.2634L57.4359 13.2648C60.9712 16.8001 63.4566 20.9965 64.8912 25.4674C54.8258 17.5817 41.4371 14.0539 28.0046 16.8182C27.3948 12.9724 27.5121 9.04043 28.3562 5.24378ZM24.563 6.44709C21.4186 7.67175 18.4284 9.42776 15.7313 11.7148C12.7004 24.6553 16.0106 38.6545 25.6254 48.7072C29.1999 45.2017 31.9803 40.7828 33.5618 35.6848C25.908 27.5655 22.907 16.6839 24.563 6.44709ZM11.4202 16.1621C1.97833 28.0328 2.44775 45.1111 12.8073 56.285C16.4954 55.1813 19.9524 53.3886 22.9903 51.0155C13.8828 41.4271 10.0342 28.5935 11.4202 16.1621ZM15.6875 59.0166C17.8092 60.7828 20.1167 62.2157 22.5413 63.3155C35.4725 59.9796 46.5169 50.3474 51.2642 36.8779C46.705 35.7218 41.8147 35.5868 36.9218 36.6663C33.6113 47.4023 25.5169 55.4434 15.6875 59.0166ZM28.1035 65.2133C38.1837 67.597 49.2874 64.8186 57.2186 56.8875C60.8654 53.2407 63.4205 48.9227 64.8849 44.3416C61.9175 41.5502 58.4181 39.3698 54.6046 37.9289C50.0628 50.9247 40.1111 60.648 28.1035 65.2133ZM65.8451 40.5139C66.4116 37.4394 66.5104 34.3001 66.1418 31.2108C56.6239 21.8887 42.7165 17.3775 28.7465 20.2389C30.0545 24.965 32.5025 29.4521 36.0911 33.2655C46.9863 30.8357 57.8857 33.8276 65.8451 40.5139ZM11.3382 11.0072C24.8034 -2.45794 46.5563 -2.59176 59.9107 10.7899L59.9121 10.7912C73.2631 24.1437 73.1603 45.8955 59.6934 59.3624C46.2278 72.8279 24.4739 72.9613 11.1196 59.5784C-2.23023 46.1999 -2.12977 24.4752 11.3382 11.0072Z" fill="#7FBC7F"></path>
</svg>