<svg width="79" height="79" viewBox="0 0 79 79" fill="none" xmlns="http://www.w3.org/2000/svg" class="h-full w-auto !fill-current [&amp;_*]:!fill-current">
<g clip-path="url(#clip0_3612_36129)">
<path fill-rule="evenodd" clip-rule="evenodd" d="M23.4014 50.2306C21.479 50.0437 20.0203 51.25 19.8067 52.5491L19.8061 52.5527C19.6926 53.234 19.9089 53.9339 20.4212 54.5037C21.0674 55.2225 21.0086 56.3289 20.2899 56.9751C19.5712 57.6213 18.4647 57.5625 17.8185 56.8438C16.6712 55.5677 16.0476 53.8184 16.3534 51.9794C16.9357 48.445 20.4935 46.3224 23.9848 46.7748L24.0004 46.7768L24.016 46.7791C24.1723 46.8022 24.3139 46.8469 24.3372 46.8542C24.3384 46.8546 24.3393 46.8549 24.3399 46.8551C24.3962 46.8724 24.4572 46.8927 24.5166 46.913C24.6373 46.9542 24.7937 47.01 24.9777 47.077C25.3481 47.2119 25.8627 47.404 26.496 47.6433C27.7644 48.1227 29.5289 48.799 31.6104 49.6029C32.512 49.9512 32.9606 50.9643 32.6124 51.8659C32.2641 52.7675 31.251 53.2161 30.3494 52.8679C28.2709 52.0651 26.5154 51.3923 25.2587 50.9173C24.6295 50.6795 24.1304 50.4933 23.7801 50.3657C23.6141 50.3053 23.4885 50.2606 23.4014 50.2306ZM23.31 50.2001C23.3114 50.2006 23.3134 50.2012 23.3159 50.202C23.2929 50.1956 23.2881 50.1934 23.31 50.2001Z" fill="#7FBC7F"></path>
<path fill-rule="evenodd" clip-rule="evenodd" d="M51.1502 58.1096C51.5028 57.2097 52.5181 56.766 53.418 57.1186C56.7037 58.406 59.6144 59.5492 61.7036 60.3704C62.7482 60.7811 63.5874 61.1113 64.1656 61.3388L65.06 61.6909L64.4196 63.3195L65.061 61.6913L65.1011 61.7071L65.1403 61.7248C68.4635 63.2268 70.7073 66.5969 70.0861 70.3515C69.3141 75.0093 64.5797 77.9269 59.8035 77.3047L59.8014 77.3044C58.8189 77.1752 57.8908 76.905 57.0328 76.5133L56.9951 76.4961L38.7583 67.1033C37.899 66.6608 37.5613 65.6055 38.0038 64.7463C38.4463 63.887 39.5016 63.5493 40.3609 63.9918L58.5217 73.3454C59.0536 73.5841 59.6332 73.752 60.2562 73.8341C63.5195 74.259 66.2248 72.2411 66.633 69.7801C66.95 67.8647 65.8485 65.9027 63.7356 64.931L62.8838 64.5957C62.3061 64.3683 61.4672 64.0382 60.4231 63.6278C58.3348 62.8069 55.4254 61.6642 52.1411 60.3774C51.2413 60.0248 50.7976 59.0095 51.1502 58.1096Z" fill="#7FBC7F"></path>
<path fill-rule="evenodd" clip-rule="evenodd" d="M52.0107 69.1337C52.0107 64.3819 56.2861 60.8682 61.1007 60.8682C62.3366 60.8682 63.5035 61.0944 64.5727 61.4935L63.3488 64.7725C62.658 64.5147 61.9049 64.3682 61.1007 64.3682C57.8154 64.3682 55.5107 66.6953 55.5107 69.1337C55.5107 70.6275 56.3318 72.0283 57.7508 72.9456L55.8507 75.8849C53.5897 74.4233 52.0107 71.9893 52.0107 69.1337Z" fill="#7FBC7F"></path>
<path fill-rule="evenodd" clip-rule="evenodd" d="M62.7862 50.9717L62.7876 50.9716C63.2264 53.6332 61.7707 56.0363 59.5525 57.2344L59.5374 57.2425L22.1353 76.5051L22.0977 76.5223C21.2397 76.914 20.3116 77.1842 19.3291 77.3134L19.327 77.3137C14.5507 77.936 9.81651 75.0188 9.04447 70.361C8.42323 66.6064 10.667 63.2358 13.9902 61.7338L14.0298 61.716L14.0702 61.7L14.7109 63.3285C14.0702 61.7 14.0699 61.7002 14.0702 61.7L15.7899 61.0238C16.8846 60.5935 18.4492 59.9786 20.3289 59.2405C24.0882 57.7643 29.1081 55.7951 34.1497 53.8229C39.1908 51.851 44.2555 49.8755 48.1039 48.3871C50.0275 47.6432 51.6506 47.0196 52.816 46.5787C53.3977 46.3586 53.8713 46.1818 54.2132 46.0576C54.3829 45.996 54.5293 45.9441 54.6438 45.9054C54.7001 45.8864 54.7601 45.8667 54.817 45.8497L54.8195 45.8489C54.8422 45.8419 54.9897 45.7964 55.156 45.7748M15.3946 64.9401L17.0704 64.2812C18.1648 63.851 19.729 63.2363 21.6082 62.4983C25.3667 61.0225 30.385 59.0538 35.4247 57.0824C40.4648 55.1109 45.5245 53.1374 49.3664 51.6515C51.2879 50.9083 52.9014 50.2885 54.0545 49.8522C54.632 49.6337 55.0882 49.4635 55.4077 49.3475C55.5505 49.2956 55.6589 49.2572 55.7355 49.231C57.6598 49.042 59.1203 50.2491 59.3341 51.5491L59.3355 51.549C59.492 52.5204 58.9922 53.5528 57.9028 54.1475L20.6088 73.3544C20.0769 73.5931 19.4973 73.761 18.8742 73.8431C15.611 74.268 12.9056 72.25 12.4974 69.7891M12.4974 69.7891C12.1808 67.874 13.2821 65.9118 15.3946 64.9401L12.4974 69.7891ZM62.7862 50.9717C62.2 47.4425 58.6459 45.3233 55.1576 45.7746L62.7862 50.9717Z" fill="#7FBC7F"></path>
<path fill-rule="evenodd" clip-rule="evenodd" d="M18.0309 64.3682C17.2267 64.3682 16.4736 64.5147 15.7828 64.7725L14.559 61.4935C15.6281 61.0944 16.795 60.8682 18.0309 60.8682C22.8455 60.8682 27.1209 64.3819 27.1209 69.1337C27.1209 71.9893 25.5419 74.4233 23.2809 75.8849L21.3808 72.9456C22.7998 72.0283 23.6209 70.6275 23.6209 69.1337C23.6209 66.6953 21.3162 64.3682 18.0309 64.3682Z" fill="#7FBC7F"></path>
<path fill-rule="evenodd" clip-rule="evenodd" d="M36.8862 0.36493L36.091 1.92383C36.8862 0.36493 36.8866 0.365172 36.8871 0.365426L36.8909 0.36734L36.8978 0.370887L36.918 0.381383C36.9343 0.389889 36.9562 0.401411 36.9833 0.415919C37.0375 0.444926 37.1128 0.485919 37.2065 0.538643C37.3937 0.643999 37.6553 0.796751 37.9693 0.994905C38.5951 1.38973 39.4416 1.97258 40.328 2.72869C42.0579 4.2044 44.1503 6.51903 44.7932 9.56209L44.7938 9.56522C45.7463 14.1146 44.9338 18.8129 42.2849 24.8837C41.8984 25.7695 40.867 26.1743 39.9811 25.7878C39.0953 25.4013 38.6905 24.3698 39.077 23.484C41.5677 17.7756 42.1155 13.8543 41.3685 10.2841C40.9609 8.35776 39.5587 6.67293 38.0565 5.39146C37.8613 5.22499 37.668 5.06833 37.4796 4.92186C36.9723 7.86476 36.0919 10.2467 34.9929 12.2766C33.5699 14.9047 31.8132 16.8759 30.2209 18.6164C30.1272 18.7188 30.0342 18.8202 29.9421 18.9208C28.4345 20.5663 27.143 21.9759 26.1715 23.6803C25.1758 25.4272 24.501 27.5261 24.501 30.4938C24.501 35.5375 26.981 40.0031 30.7871 42.7414C30.9996 39.0118 32.2232 35.7231 33.4902 33.2438C34.3078 31.6436 35.159 30.3501 35.8087 29.4525C36.1342 29.0029 36.4109 28.6503 36.6099 28.4059C36.7095 28.2837 36.7898 28.1883 36.8472 28.1212C36.876 28.0876 36.899 28.0611 36.916 28.0418L36.9367 28.0183L36.9435 28.0107L36.947 28.0067C36.9474 28.0062 36.9479 28.0058 38.251 29.1738L36.9479 28.0058C37.4688 27.4246 38.3117 27.2586 39.0141 27.599C39.715 27.9386 40.1069 28.7004 39.9761 29.4678C39.9759 29.4689 39.9757 29.47 39.9756 29.4711L39.9757 29.47L39.9746 29.4774C39.9727 29.489 39.9695 29.5102 39.9652 29.5408C39.9565 29.602 39.9436 29.7003 39.9296 29.832C39.9016 30.0957 39.8692 30.4917 39.8568 30.9909C39.832 31.9926 39.8882 33.3916 40.2114 34.964C40.814 37.8954 42.3327 41.3999 46.0021 44.1283C51.1149 41.7109 54.641 36.5153 54.641 30.4938C54.641 30.4307 54.6414 28.0513 53.9731 25.0591C53.2948 22.0223 51.9785 18.5866 49.5017 16.2188C48.8031 15.5509 48.7781 14.4432 49.446 13.7445C50.1139 13.0459 51.2216 13.021 51.9203 13.6889C55.1235 16.7511 56.6472 20.9753 57.3889 24.2961C58.1382 27.6508 58.141 30.3208 58.141 30.4938C58.141 38.3241 53.302 45.0126 46.45 47.749C45.9174 47.9617 45.3144 47.9 44.836 47.5837C39.6524 44.1574 37.5627 39.4615 36.7831 35.6687C36.7226 35.3744 36.6699 35.0854 36.6241 34.8025C36.6184 34.8138 36.6126 34.8251 36.6068 34.8364C35.1574 37.6727 33.8916 41.4791 34.3503 45.6212C34.4197 46.2472 34.1473 46.8621 33.6371 47.2314C33.127 47.6007 32.4578 47.6674 31.8848 47.406C25.4757 44.4828 21.001 38.0159 21.001 30.4938C21.001 26.9266 21.8299 24.2292 23.1308 21.9471C24.3052 19.8866 25.8521 18.201 27.3025 16.6204C27.4152 16.4976 27.5273 16.3755 27.6386 16.2538C29.2175 14.528 30.7139 12.8286 31.915 10.6101C33.1045 8.41319 34.0374 5.64009 34.3466 1.78398C34.3933 1.20169 34.7274 0.681085 35.2374 0.396141C35.7473 0.111198 36.3658 0.09949 36.8862 0.36493ZM39.9756 29.4711C39.9755 29.4711 39.9756 29.471 39.9756 29.4711V29.4711Z" fill="#7FBC7F"></path>
</g>
<defs>
<clipPath id="clip0_3612_36129">
<rect width="78" height="78" fill="white" transform="translate(0.370117 0.0292969)"></rect>
</clipPath>
</defs>
</svg>