<svg width="66" height="79" viewBox="0 0 66 79" fill="none" xmlns="http://www.w3.org/2000/svg" class="h-full w-auto !fill-current [&amp;_*]:!fill-current">
<path fill-rule="evenodd" clip-rule="evenodd" d="M16.5857 75.8569C16.5857 74.8904 17.3692 74.1069 18.3357 74.1069H46.2144C47.1809 74.1069 47.9644 74.8904 47.9644 75.8569C47.9644 76.8234 47.1809 77.6069 46.2144 77.6069H18.3357C17.3692 77.6069 16.5857 76.8234 16.5857 75.8569Z" fill="#7FBC7F"></path>
<path fill-rule="evenodd" clip-rule="evenodd" d="M32.2751 43.3247C33.2416 43.3247 34.0251 44.1082 34.0251 45.0747V64.2389C34.0251 65.2054 33.2416 65.9889 32.2751 65.9889C31.3086 65.9889 30.5251 65.2054 30.5251 64.2389V45.0747C30.5251 44.1082 31.3086 43.3247 32.2751 43.3247Z" fill="#7FBC7F"></path>
<path fill-rule="evenodd" clip-rule="evenodd" d="M32.2741 62.4888C33.2406 62.4888 34.0241 63.2723 34.0241 64.2388C34.0241 71.6222 28.0387 77.603 20.6599 77.603C19.6934 77.603 18.9099 76.8195 18.9099 75.853C18.9099 74.8865 19.6934 74.103 20.6599 74.103C26.1064 74.103 30.5241 69.6884 30.5241 64.2388C30.5241 63.2723 31.3076 62.4888 32.2741 62.4888Z" fill="#7FBC7F"></path>
<path fill-rule="evenodd" clip-rule="evenodd" d="M32.2751 62.4888C33.2416 62.4888 34.0251 63.2723 34.0251 64.2388C34.0251 69.6884 38.4428 74.103 43.8893 74.103C44.8558 74.103 45.6393 74.8865 45.6393 75.853C45.6393 76.8195 44.8558 77.603 43.8893 77.603C36.5106 77.603 30.5251 71.6222 30.5251 64.2388C30.5251 63.2723 31.3086 62.4888 32.2751 62.4888Z" fill="#7FBC7F"></path>
<path fill-rule="evenodd" clip-rule="evenodd" d="M0.792765 9.64914C1.51348 9.00518 2.61977 9.06741 3.26373 9.78813L32.3101 42.2968L61.3565 9.78813C62.0005 9.06741 63.1068 9.00518 63.8275 9.64914C64.5482 10.2931 64.6104 11.3994 63.9665 12.1201L33.6151 46.0893C33.2831 46.4609 32.8084 46.6733 32.3101 46.6733C31.8118 46.6733 31.3372 46.4609 31.0051 46.0893L0.653782 12.1201C0.00982177 11.3994 0.0720469 10.2931 0.792765 9.64914Z" fill="#7FBC7F"></path>
<path fill-rule="evenodd" clip-rule="evenodd" d="M0.797296 9.64511C1.52024 9.00365 2.62631 9.06971 3.26777 9.79266L22.8491 31.8615C27.9178 37.4557 36.7025 37.4556 41.7712 31.8614L58.7692 12.7041H9.07788C8.11138 12.7041 7.32788 11.9206 7.32788 10.9541C7.32788 9.98762 8.11138 9.20412 9.07788 9.20412H62.6615C63.3503 9.20412 63.9751 9.60824 64.2576 10.2365C64.5401 10.8648 64.4277 11.6003 63.9705 12.1156L44.3832 34.1911L44.3718 34.2039C37.9127 41.3415 26.7076 41.3415 20.2485 34.2039L20.237 34.1911L0.649752 12.1156C0.00829282 11.3926 0.0743507 10.2866 0.797296 9.64511Z" fill="#7FBC7F"></path>
<path fill-rule="evenodd" clip-rule="evenodd" d="M7.32788 18.3604C7.32788 17.3939 8.11138 16.6104 9.07788 16.6104H41.603C42.5695 16.6104 43.353 17.3939 43.353 18.3604C43.353 19.3268 42.5695 20.1104 41.603 20.1104H9.07788C8.11138 20.1104 7.32788 19.3268 7.32788 18.3604Z" fill="#7FBC7F"></path>
<path fill-rule="evenodd" clip-rule="evenodd" d="M46.822 18.3604C46.822 17.3939 47.6055 16.6104 48.572 16.6104H55.5436C56.5101 16.6104 57.2936 17.3939 57.2936 18.3604C57.2936 19.3268 56.5101 20.1104 55.5436 20.1104H48.572C47.6055 20.1104 46.822 19.3268 46.822 18.3604Z" fill="#7FBC7F"></path>
<path fill-rule="evenodd" clip-rule="evenodd" d="M56.0988 1.60825C56.8419 2.22631 56.9432 3.32971 56.3251 4.07276L39.1833 24.681C38.5653 25.424 37.4619 25.5253 36.7188 24.9073C35.9758 24.2892 35.8745 23.1858 36.4925 22.4428L53.6343 1.83456C54.2524 1.09151 55.3558 0.990191 56.0988 1.60825Z" fill="#7FBC7F"></path>
<path fill-rule="evenodd" clip-rule="evenodd" d="M33.8051 28.4883C34.5467 29.108 34.6455 30.2116 34.0258 30.9533L31.4794 34.0004C30.8596 34.7421 29.756 34.8409 29.0143 34.2211C28.2727 33.6014 28.1739 32.4977 28.7937 31.7561L31.3401 28.7089C31.9599 27.9673 33.0635 27.8685 33.8051 28.4883Z" fill="#7FBC7F"></path>
<path fill-rule="evenodd" clip-rule="evenodd" d="M35.3647 24.4658C34.0866 24.4658 33.0505 25.5019 33.0505 26.78C33.0505 28.0581 34.0866 29.0942 35.3647 29.0942C36.6428 29.0942 37.6789 28.0581 37.6789 26.78C37.6789 25.5019 36.6428 24.4658 35.3647 24.4658ZM29.5505 26.78C29.5505 23.5689 32.1536 20.9658 35.3647 20.9658C38.5758 20.9658 41.1789 23.5689 41.1789 26.78C41.1789 29.9911 38.5758 32.5942 35.3647 32.5942C32.1536 32.5942 29.5505 29.9911 29.5505 26.78Z" fill="#7FBC7F"></path>
<path fill-rule="evenodd" clip-rule="evenodd" d="M54.3772 4.42822C54.7027 4.42822 54.9666 4.16436 54.9666 3.83887C54.9666 3.51337 54.7027 3.24951 54.3772 3.24951C54.0517 3.24951 53.7878 3.51337 53.7878 3.83887C53.7878 4.16436 54.0517 4.42822 54.3772 4.42822ZM51.4666 3.83887C51.4666 2.23136 52.7697 0.928223 54.3772 0.928223C55.9847 0.928223 57.2878 2.23136 57.2878 3.83887C57.2878 5.44637 55.9847 6.74951 54.3772 6.74951C52.7697 6.74951 51.4666 5.44637 51.4666 3.83887Z" fill="#7FBC7F"></path>
</svg>