<svg width="77" height="77" viewBox="0 0 77 77" fill="none" xmlns="http://www.w3.org/2000/svg" class="h-full w-auto !fill-current [&amp;_*]:!fill-current">
<path d="M32.896 43.7484L28.771 47.8726L28.7916 47.8932L32.9166 43.769L32.896 43.7484Z" stroke="#7FBC7F" stroke-width="3.5" stroke-linecap="round" stroke-linejoin="round"></path>
<path fill-rule="evenodd" clip-rule="evenodd" d="M24.8728 1.73535C23.9063 1.73535 23.1228 2.51885 23.1228 3.48535V3.51451C23.1228 4.48101 23.9063 5.26451 24.8728 5.26451C27.1151 5.26451 28.9419 7.09137 28.9419 9.3324C28.9419 10.2989 29.7254 11.0824 30.6919 11.0824H30.721C31.6875 11.0824 32.471 10.2989 32.471 9.3324C32.471 5.14313 29.0621 1.73535 24.8728 1.73535ZM35.8963 15.6089C42.8489 8.77095 54.0412 8.78296 60.9515 15.7065C67.8109 22.5501 67.8878 33.5941 61.2422 40.5584C61.1861 40.6374 61.1228 40.7125 61.0526 40.7827L60.9651 40.8702C57.5302 44.3044 53.0454 46.0424 48.5478 46.0843C48.4104 46.226 48.2601 46.3711 48.097 46.5119L48.0836 46.5234L20.0092 70.2761L20.0064 70.2785C18.1926 71.8064 15.9697 72.5621 13.7534 72.5597C13.6749 72.6472 13.5936 72.733 13.5092 72.8174C10.8277 75.4983 6.49681 75.4983 3.8154 72.8174C1.1338 70.1363 1.1338 65.8056 3.8154 63.1246C3.90317 63.0368 3.99214 62.9536 4.08154 62.8745C4.08221 60.6654 4.83836 58.4501 6.37169 56.6403L6.37234 56.6396L30.1292 28.5716L30.1406 28.5582C30.2862 28.3896 30.4363 28.2348 30.5826 28.0937C30.6315 23.6063 32.3698 19.1339 35.7976 15.7068L35.8195 15.6849L35.8264 15.6779L35.8305 15.6773C35.8518 15.654 35.8737 15.6312 35.8963 15.6089ZM38.7222 17.7514C44.3316 12.6105 53.0522 12.7453 58.4754 18.1802L58.4783 18.1831C63.9141 23.6051 64.049 32.3234 58.9072 37.9315C53.4683 39.0019 47.6296 37.4405 43.4214 33.2331C39.2133 29.0258 37.6518 23.1888 38.7222 17.7514ZM39.5426 43.7382C40.9159 44.5253 42.3714 45.1145 43.8678 45.5056L17.7514 67.6017L17.7499 67.603C16.498 68.6569 14.9435 69.135 13.4192 69.0502C13.3212 69.0225 13.2201 69.0031 13.1168 68.9928C12.1801 68.8991 11.2638 68.5998 10.4527 68.0981C10.0778 67.8596 9.72339 67.577 9.39687 67.2505C8.98462 66.8383 8.64194 66.382 8.36949 65.8965C7.96673 65.1586 7.72278 64.3459 7.6399 63.5172C7.63094 63.4276 7.61517 63.3396 7.59303 63.2538C7.5 61.7218 7.97814 60.1584 9.04256 58.9023L31.1549 32.7773C31.3448 33.5078 31.5819 34.2287 31.8663 34.935C32.7293 37.0938 34.0335 39.1192 35.7842 40.8695C36.932 42.0171 38.1982 42.9729 39.5426 43.7382ZM48.1489 42.5832C49.9422 42.6122 51.7399 42.3054 53.4402 41.6628C48.8858 41.194 44.4563 39.2183 40.9604 35.723L40.9458 35.7085C37.4494 32.2128 35.4733 27.7836 35.0046 23.2294C34.3527 24.9527 34.0461 26.7763 34.0848 28.5939C34.095 28.6609 34.1013 28.7289 34.1036 28.7977C34.1554 30.3399 34.4538 31.8752 35.001 33.3382C35.6967 35.1814 36.7871 36.9102 38.2722 38.3951C39.2396 39.3623 40.3105 40.162 41.4492 40.7943C43.4421 41.8916 45.6428 42.4745 47.8579 42.5489C47.9567 42.5522 48.054 42.5638 48.1489 42.5832ZM9.00463 71.3105C8.84889 71.2225 8.6951 71.1297 8.54346 71.0324C7.96201 70.666 7.4121 70.2309 6.90723 69.7262C6.27084 69.0899 5.74526 68.3821 5.32817 67.6297L5.32264 67.6199C5.22047 68.5899 5.54293 69.5953 6.29003 70.3423C7.03495 71.087 8.03691 71.4098 9.00463 71.3105ZM47.199 62.8747C47.199 62.231 47.721 61.7085 48.3658 61.7085C49.0105 61.7085 49.5326 62.231 49.5326 62.8747C49.5326 63.5185 49.0105 64.041 48.3658 64.041C47.721 64.041 47.199 63.5185 47.199 62.8747ZM48.3658 58.2085C45.7887 58.2085 43.699 60.2973 43.699 62.8747C43.699 65.4521 45.7887 67.541 48.3658 67.541C50.9429 67.541 53.0326 65.4522 53.0326 62.8747C53.0326 60.2973 50.9429 58.2085 48.3658 58.2085ZM67.0215 47.8706C67.0215 46.9041 67.805 46.1206 68.7715 46.1206H68.8007C69.7672 46.1206 70.5507 46.9041 70.5507 47.8706V49.3287C70.5507 50.2952 69.7672 51.0787 68.8007 51.0787H68.7715C67.805 51.0787 67.0215 50.2952 67.0215 49.3287V47.8706ZM68.7715 53.4111C67.805 53.4111 67.0215 54.1946 67.0215 55.1611V56.6192C67.0215 57.5857 67.805 58.3692 68.7715 58.3692H68.8007C69.7672 58.3692 70.5507 57.5857 70.5507 56.6192V55.1611C70.5507 54.1946 69.7672 53.4111 68.8007 53.4111H68.7715ZM62.6602 52.2305C62.6602 51.264 63.4437 50.4805 64.4102 50.4805H65.8686C66.8351 50.4805 67.6186 51.264 67.6186 52.2305V52.2596C67.6186 53.2261 66.8351 54.0096 65.8686 54.0096H64.4102C63.4437 54.0096 62.6602 53.2261 62.6602 52.2596V52.2305ZM71.7031 50.4805C70.7366 50.4805 69.9531 51.264 69.9531 52.2305V52.2596C69.9531 53.2261 70.7366 54.0096 71.7031 54.0096H73.1615C74.128 54.0096 74.9115 53.2261 74.9115 52.2596V52.2305C74.9115 51.264 74.128 50.4805 73.1615 50.4805H71.7031ZM13.7742 13.415C14.7407 13.415 15.5242 14.1985 15.5242 15.165C15.5242 18.2226 18.0072 20.7056 21.0663 20.7056C22.0328 20.7056 22.8163 21.4891 22.8163 22.4556C22.8163 23.4221 22.0328 24.2056 21.0663 24.2056C18.0072 24.2056 15.5242 26.6886 15.5242 29.7462C15.5242 30.7127 14.7407 31.4962 13.7742 31.4962C12.8077 31.4962 12.0242 30.7127 12.0242 29.7462C12.0242 26.6886 9.54122 24.2056 6.48218 24.2056C5.51568 24.2056 4.73218 23.4221 4.73218 22.4556C4.73218 21.4891 5.51568 20.7056 6.48218 20.7056C9.54122 20.7056 12.0242 18.2226 12.0242 15.165C12.0242 14.1985 12.8077 13.415 13.7742 13.415ZM13.7742 20.51C13.2283 21.2531 12.5715 21.9098 11.8283 22.4556C12.5715 23.0015 13.2283 23.6582 13.7742 24.4013C14.3202 23.6582 14.9769 23.0015 15.7201 22.4556C14.9769 21.9098 14.3202 21.2531 13.7742 20.51Z" fill="#7FBC7F"></path>
</svg>