<svg width="79" height="79" viewBox="0 0 79 79" fill="none" xmlns="http://www.w3.org/2000/svg" class="h-full w-auto !fill-current [&amp;_*]:!fill-current">
<g clip-path="url(#clip0_3612_36112)">
<path fill-rule="evenodd" clip-rule="evenodd" d="M33.5732 2.47169C33.5732 1.891 33.2851 1.34812 32.8043 1.02257C32.3234 0.697018 31.7124 0.63119 31.1732 0.846854L15.0971 7.27729C14.4327 7.54305 13.9971 8.18654 13.9971 8.90212V23.4971C12.9496 23.1823 11.7798 23.1519 10.6059 23.3923C8.92579 23.7364 7.40775 24.5915 6.2938 25.7156C5.19265 26.8269 4.36816 28.3308 4.36816 29.9938C4.36816 31.7174 5.25222 33.1341 6.60827 33.9628C7.92508 34.7675 9.59628 34.9781 11.2761 34.6341C12.9562 34.29 14.4742 33.4349 15.5882 32.3107C16.6893 31.1995 17.5138 29.6956 17.5138 28.0326C17.5138 27.8947 17.5082 27.7589 17.4971 27.6251V16.5174L30.0732 11.487V17.0655C29.0157 16.7484 27.8344 16.7201 26.6523 16.9622C24.971 17.3066 23.4559 18.1627 22.3454 19.2884C21.2473 20.4017 20.4307 21.9049 20.4307 23.5638C20.4307 25.2967 21.3281 26.7076 22.692 27.5246C24.0126 28.3158 25.6828 28.5143 27.3546 28.1719C29.036 27.8275 30.5511 26.9714 31.6615 25.8457C32.7597 24.7324 33.5763 23.2292 33.5763 21.5703C33.5763 21.5108 33.5753 21.4517 33.5732 21.393V2.47169ZM30.0732 21.4757V21.5701H30.0763V21.5703C30.0763 22.0657 29.8159 22.7328 29.1697 23.3878C28.5359 24.0304 27.6396 24.5408 26.6523 24.7431C25.6555 24.9472 24.9143 24.776 24.4907 24.5222C24.1103 24.2943 23.9307 23.985 23.9307 23.5638C23.9307 23.0684 24.1911 22.4013 24.8372 21.7463C25.4711 21.1037 26.3674 20.5933 27.3546 20.3911C28.3515 20.1869 29.0926 20.3581 29.5163 20.6119C29.8676 20.8224 30.0477 21.1023 30.0732 21.4757ZM30.0732 7.71738V5.0565L17.4971 10.0869V12.7478L30.0732 7.71738ZM13.9971 27.8184V28.2095H14.0032C13.9484 28.6775 13.6779 29.266 13.102 29.8472C12.4637 30.4914 11.5623 31.0028 10.5738 31.2053C9.58492 31.4078 8.85274 31.2326 8.43334 30.9763C8.05317 30.744 7.86816 30.4244 7.86816 29.9938C7.86816 29.5027 8.12881 28.8363 8.77995 28.1792C9.41831 27.535 10.3197 27.0236 11.3082 26.8211C12.2971 26.6186 13.0292 26.7938 13.4486 27.0501C13.7629 27.2421 13.9438 27.4937 13.9971 27.8184ZM36.9159 30.4304C38.2501 28.916 40.1378 28.0508 42.2721 28.0508C44.4065 28.0508 46.2942 28.916 47.6284 30.4304C48.9495 31.93 49.6488 33.9699 49.6488 36.2312V37.8388C49.6488 40.1001 48.9495 42.14 47.6284 43.6396C46.2942 45.154 44.4065 46.0193 42.2721 46.0193C40.1378 46.0193 38.2501 45.154 36.9159 43.6396C35.5947 42.14 34.8955 40.1001 34.8955 37.8388V36.2312C34.8955 33.9699 35.5947 31.93 36.9159 30.4304ZM39.5421 32.7441C38.8698 33.5072 38.3955 34.6825 38.3955 36.2312V37.8388C38.3955 39.3876 38.8698 40.5629 39.5421 41.326C40.2014 42.0743 41.127 42.5193 42.2721 42.5193C43.4173 42.5193 44.3429 42.0743 45.0022 41.326C45.6745 40.5629 46.1488 39.3876 46.1488 37.8388V36.2312C46.1488 34.6825 45.6745 33.5072 45.0022 32.7441C44.3429 31.9957 43.4173 31.5508 42.2721 31.5508C41.127 31.5508 40.2014 31.9957 39.5421 32.7441ZM38.2552 68.5259H18.9639V65.0259H38.2552V68.5259ZM7.56934 69.8486H75.3737V78.0291H71.8737V73.3486H11.0693V78.0291H7.56934V69.8486ZM44.6865 68.5259H63.9778V65.0259H44.6865V68.5259ZM61.7304 31.6031L60.2485 30.521L52.8215 41.774L52.7819 41.8501L52.7811 41.8517L52.7798 41.854C52.7768 41.8597 52.7707 41.8711 52.7614 41.8878C52.7429 41.9213 52.712 41.9761 52.6689 42.0491C52.5826 42.1954 52.4481 42.4135 52.2663 42.6795C51.9009 43.2143 51.3556 43.9264 50.6413 44.6337C49.1977 46.063 47.2036 47.3425 44.6865 47.3425H39.8637C37.3466 47.3425 35.3525 46.063 33.9089 44.6337C33.1946 43.9264 32.6493 43.2143 32.2838 42.6795C32.1021 42.4135 31.9675 42.1954 31.8812 42.0491C31.8381 41.9761 31.8073 41.9213 31.7888 41.8878C31.7795 41.8711 31.7734 41.8597 31.7703 41.854L31.7688 41.8511L31.7681 41.8499L31.7287 41.774L24.306 30.5276L22.8259 31.5987C21.3046 32.6997 20.1188 34.3279 19.4521 36.0559C18.7905 37.7708 18.5677 39.7861 19.2816 41.5992L19.323 41.7042L23.9824 50.1546L31.6832 57.8554V63.561H35.1832V56.4057L26.808 48.0304L22.5043 40.2252C22.2422 39.4728 22.2837 38.4401 22.7175 37.3157C22.9302 36.7644 23.2211 36.2361 23.567 35.7618L28.7148 43.5614L28.7255 43.5808C28.759 43.6415 28.8061 43.7249 28.8668 43.8276C28.988 44.033 29.1639 44.3173 29.3941 44.6542C29.8525 45.325 30.5371 46.2205 31.4464 47.1209C33.2502 48.9068 36.0789 50.8425 39.8637 50.8425H44.6865C48.4712 50.8425 51.3 48.9068 53.1038 47.1209C54.0131 46.2205 54.6977 45.325 55.1561 44.6542C55.3863 44.3173 55.5622 44.033 55.6834 43.8276C55.744 43.7249 55.7912 43.6415 55.8247 43.5808L55.8354 43.5614L60.9811 35.7649C61.3311 36.2438 61.6251 36.7761 61.8395 37.3297C62.2762 38.4576 62.3135 39.4814 62.0493 40.219L57.7422 48.0304L49.3669 56.4057V63.561H52.8669V57.8554L60.5677 50.1546L65.224 41.71L65.2636 41.6115C65.9935 39.7982 65.7668 37.7795 65.1034 36.066C64.4343 34.3381 63.2456 32.7097 61.7304 31.6031ZM58.4516 22.2193C58.028 21.9655 57.2868 21.7943 56.2899 21.9985C55.3027 22.2007 54.4064 22.7111 53.7725 23.3537C53.1264 24.0088 52.866 24.6759 52.866 25.1712C52.866 25.5924 53.0456 25.9018 53.426 26.1296C53.8496 26.3834 54.5908 26.5547 55.5877 26.3505C56.5749 26.1483 57.4712 25.6379 58.105 24.9953C58.7511 24.3402 59.0116 23.6732 59.0116 23.1779H59.0107V23.1273C58.9968 22.7317 58.8166 22.438 58.4516 22.2193ZM59.0107 18.6736C57.9527 18.3559 56.7706 18.3274 55.5877 18.5697C53.9063 18.914 52.3912 19.7701 51.2807 20.8959C50.1826 22.0092 49.366 23.5123 49.366 25.1712C49.366 26.9042 50.2634 28.315 51.6273 29.1321C52.9479 29.9232 54.6181 30.1217 56.2899 29.7793C57.9713 29.4349 59.4864 28.5789 60.5968 27.4531C61.695 26.3398 62.5116 24.8366 62.5116 23.1778C62.5116 23.1464 62.5113 23.1151 62.5107 23.0839V7.92057C63.0079 8.27714 63.4818 8.5385 63.825 8.7278C63.9466 8.79489 64.0519 8.85294 64.1359 8.90296C64.5695 9.16103 64.7785 9.34283 64.9682 9.79516C65.2143 10.3817 65.4412 11.4938 65.4412 13.7251H68.9412C68.9412 11.3587 68.716 9.68153 68.1959 8.44145C67.6194 7.06714 66.7484 6.38485 65.926 5.89538C65.6965 5.75878 65.4988 5.6487 65.3209 5.54961C64.8658 5.29612 64.54 5.11466 64.1413 4.74553C63.6463 4.28728 63.0254 3.48855 62.3946 1.84484C62.0923 1.05731 61.2713 0.597453 60.4419 0.751141C59.6125 0.904828 59.0107 1.62832 59.0107 2.47185V18.6736Z" fill="#7FBC7F"></path>
</g>
<defs>
<clipPath id="clip0_3612_36112">
<rect width="78" height="78" fill="white" transform="translate(0.870117 0.0292969)"></rect>
</clipPath>
</defs>
</svg>