<svg width="75" height="75" viewBox="0 0 75 75" fill="none" xmlns="http://www.w3.org/2000/svg" class="h-full w-auto !fill-current [&amp;_*]:!fill-current">
<g clip-path="url(#clip0_3612_36377)">
<path d="M73.4349 66.2199L73.2349 65.9399L73.0249 65.6599C72.5649 65.0699 72.0649 64.5099 71.5649 63.9599L71.4949 63.8799C70.8649 63.1799 70.3349 62.5899 69.8749 61.9299C66.9949 57.7999 64.2249 53.6599 61.4149 49.4299C61.0949 48.9499 60.9049 48.4399 60.9249 48.1099C61.0949 45.9999 61.2749 43.6199 61.7049 41.3199C62.1749 38.7799 62.7449 36.2899 63.2049 34.2699L63.2549 34.0499C63.3849 33.4699 63.5049 32.9399 63.6149 32.4699H63.6749V32.1899L63.7349 31.9199H63.6749C63.6149 27.4499 62.8349 24.5399 61.0149 21.8799C58.7749 18.6199 56.5649 15.3499 54.3549 12.0799L54.2349 11.8999C52.6149 9.49988 50.9949 7.09988 49.3649 4.70988C47.7149 2.27988 45.3649 0.669877 42.7649 0.159877C40.1549 -0.350123 37.3849 0.269877 34.9649 1.89988C29.4349 5.62988 23.9049 9.37988 18.3949 13.1399C15.7249 14.9599 14.0549 17.3099 13.5549 19.9499C13.0549 22.5799 13.7449 25.3799 15.5549 28.0499C16.6749 29.6999 17.7949 31.3399 18.9249 32.9699L19.2149 32.7699L18.9849 33.0499C21.4049 36.5499 23.8949 40.1699 26.2049 43.8299C29.0349 48.3199 33.1449 50.9599 38.7849 51.8799C39.9949 52.0799 41.2049 52.2599 42.4149 52.4499L42.5149 52.4699C44.6249 52.7899 46.8049 53.1199 48.9349 53.5399C50.9849 53.9299 52.3549 54.8499 53.2449 56.4199C54.0049 57.7699 54.9149 59.0599 55.7949 60.3199C56.1849 60.8699 56.5649 61.4099 56.9249 61.9499L57.4549 62.7299C59.5749 65.8599 61.7649 69.0899 63.4749 72.5299C64.0349 73.6299 64.8749 74.3099 65.9149 74.4799C66.0949 74.5099 66.2749 74.5199 66.4549 74.5199C67.2649 74.5199 68.1249 74.2299 68.9749 73.6599C70.0349 72.9499 71.0949 72.2299 72.1549 71.5099C73.2349 70.7699 73.8749 69.9199 74.0749 68.9699C74.2549 68.0799 74.0449 67.1599 73.4349 66.2099V66.2199ZM59.6049 33.6899C59.2949 35.1899 58.9849 36.6899 58.6649 38.1799C58.5349 38.7999 58.3749 39.4299 58.2249 40.0799C57.9449 41.2299 57.6649 42.4099 57.4749 43.5899C57.2749 44.7999 57.2049 46.1599 57.2649 47.7699C57.2749 48.1199 57.2549 48.3599 57.1849 48.5099C57.1449 48.6099 57.0649 48.7299 56.8049 48.8499C56.5849 48.9599 56.4049 49.0899 56.2449 49.2199C55.2749 50.0499 54.4749 50.4899 53.6449 50.6699C52.7249 50.8599 51.7249 50.7299 50.5049 50.2499C48.6749 49.5299 46.7749 49.2099 45.1549 48.9899C44.4449 48.8899 43.7449 48.8099 43.0449 48.7299H42.9349C41.8949 48.5999 40.8249 48.4699 39.7849 48.2999C37.5849 47.9399 35.2849 47.4199 33.3549 46.0499C32.0249 45.1099 31.0049 44.1499 30.3449 43.1899C26.4449 37.5999 22.5949 31.8699 18.8649 26.3199L18.3449 25.5499C17.2849 23.9699 16.8949 22.2699 17.2149 20.6099C17.5349 18.9499 18.5349 17.5099 20.1049 16.4399C25.5149 12.7299 31.2949 8.80988 37.2649 4.79988C38.4449 4.00988 39.7149 3.62988 40.9549 3.62988C42.9449 3.62988 44.8549 4.61988 46.1249 6.48988C49.3849 11.2399 52.6749 16.0999 55.8449 20.7999L58.2449 24.3499C59.3649 26.0199 59.9549 27.9299 60.2149 30.7499L59.6049 33.6799V33.6899ZM58.6749 52.0199C59.4649 53.1699 60.2349 54.2899 60.9949 55.4099C61.5049 56.1599 62.0049 56.9099 62.5049 57.6599L62.5649 57.7399C63.7349 59.4899 64.945 61.2999 66.2049 63.0499C67.0949 64.2599 68.0849 65.4199 69.0449 66.5499L69.1149 66.6299C69.4449 67.0099 69.7749 67.3999 70.0849 67.7799C70.3449 68.0899 70.3349 68.2099 70.3349 68.2099C70.3349 68.2099 70.3049 68.3299 69.9449 68.5399C69.4349 68.8399 68.9449 69.1799 68.4449 69.5299L68.3549 69.5899C67.8049 69.9699 67.3349 70.2899 66.8749 70.5499C66.8349 70.5499 66.7749 70.5499 66.7149 70.5499C66.5949 70.5299 66.5149 70.4899 66.5049 70.4899C66.1249 70.1399 65.8249 69.7099 65.7049 69.3299C65.1049 67.4199 64.1049 65.8299 63.2149 64.5199C62.8249 63.9599 62.4349 63.4199 62.0449 62.8799C61.4449 62.0499 60.8249 61.1899 60.2449 60.2699L55.9249 53.8599L58.6549 52.0099L58.6749 52.0199Z" fill="#5D995D"></path>
<path d="M16.985 41.78C16.995 46.38 13.295 50.13 8.72496 50.17C4.09496 50.21 0.334961 46.44 0.334961 41.79C0.334961 37.14 4.07496 33.46 8.65496 33.46C13.235 33.46 16.965 37.19 16.985 41.78ZM8.66496 47.85C11.995 47.85 14.715 45.15 14.725 41.84C14.735 38.49 11.975 35.75 8.58496 35.78C5.26496 35.8 2.56496 38.54 2.58496 41.86C2.60496 45.17 5.33496 47.86 8.65496 47.86H8.66496V47.85Z" fill="#5D995D"></path>
<path d="M8.51487 38.58C9.21487 38.58 9.78487 38.01 9.78487 37.31C9.78487 36.61 9.21487 36.04 8.51487 36.04C7.81487 36.04 7.24487 36.61 7.24487 37.31C7.24487 38.01 7.81487 38.58 8.51487 38.58Z" fill="#5D995D"></path>
<path d="M4.37498 41.1201C5.07498 41.1201 5.64498 40.5501 5.64498 39.8501C5.64498 39.1501 5.07498 38.5801 4.37498 38.5801C3.67498 38.5801 3.10498 39.1501 3.10498 39.8501C3.10498 40.5501 3.67498 41.1201 4.37498 41.1201Z" fill="#5D995D"></path>
<path d="M12.9551 41.1201C13.6551 41.1201 14.2251 40.5501 14.2251 39.8501C14.2251 39.1501 13.6551 38.5801 12.9551 38.5801C12.2551 38.5801 11.6851 39.1501 11.6851 39.8501C11.6851 40.5501 12.2551 41.1201 12.9551 41.1201Z" fill="#5D995D"></path>
<path d="M8.65501 43.2002C9.35501 43.2002 9.92501 42.6302 9.92501 41.9302C9.92501 41.2302 9.35501 40.6602 8.65501 40.6602C7.95501 40.6602 7.38501 41.2302 7.38501 41.9302C7.38501 42.6302 7.95501 43.2002 8.65501 43.2002Z" fill="#5D995D"></path>
<path d="M4.37498 45.7402C5.07498 45.7402 5.64498 45.1702 5.64498 44.4702C5.64498 43.7702 5.07498 43.2002 4.37498 43.2002C3.67498 43.2002 3.10498 43.7702 3.10498 44.4702C3.10498 45.1702 3.67498 45.7402 4.37498 45.7402Z" fill="#5D995D"></path>
<path d="M8.65501 47.58C9.35501 47.58 9.92501 47.01 9.92501 46.31C9.92501 45.61 9.35501 45.04 8.65501 45.04C7.95501 45.04 7.38501 45.61 7.38501 46.31C7.38501 47.01 7.95501 47.58 8.65501 47.58Z" fill="#5D995D"></path>
<path d="M12.9551 45.3398C13.6551 45.3398 14.2251 44.7698 14.2251 44.0698C14.2251 43.3698 13.6551 42.7998 12.9551 42.7998C12.2551 42.7998 11.6851 43.3698 11.6851 44.0698C11.6851 44.7698 12.2551 45.3398 12.9551 45.3398Z" fill="#5D995D"></path>
</g>
<defs>
<clipPath id="clip0_3612_36377">
<rect width="73.81" height="74.53" fill="white" transform="translate(0.334961)"></rect>
</clipPath>
</defs>
</svg>